<svg width="59" height="16" viewBox="0 0 59 16" fill="none" xmlns="http://www.w3.org/2000/svg">
<g clip-path="url(#clip0_11_670)">
<path d="M58.2236 0.785034H0.776367V15.2128H58.2236V0.785034Z" fill="black"/>
<path d="M13.7915 10.6256L14.2265 9.23379L14.6532 10.6235H13.7915V10.6256ZM43.8472 7.7804C43.8472 5.9642 45.2897 4.49383 47.0714 4.49383C48.8531 4.49383 50.2955 5.9642 50.2955 7.7804C50.2955 9.5966 48.851 11.0691 47.0714 11.0691C45.2918 11.0691 43.8472 9.5966 43.8472 7.7804ZM34.4101 10.6256L34.8409 9.23379L35.2801 10.632L34.4101 10.6278V10.6256ZM0 0H59V16H0V0ZM2.73291 2.75401V13.2417H5.06826V2.75401H2.73291ZM19.8276 6.10423V8.21748H23.5138C23.3036 9.82575 21.9528 11.067 20.3147 11.067C18.5351 11.067 17.0926 9.59448 17.0926 7.77828C17.0926 5.96207 18.5351 4.49171 20.3147 4.49171C21.1119 4.49171 21.8404 4.78663 22.4086 5.27251L23.7886 3.44357C22.8394 2.65853 21.6301 2.18751 20.3147 2.18751C18.0709 2.18751 16.1373 3.56451 15.2776 5.54409L14.1828 2.07081L12.0389 8.97706L12.0306 2.08991L8.85437 6.26973C7.75746 4.90333 6.73132 3.37992 5.6802 2.08779V13.2396H7.97185V8.92826L8.85437 10.074L9.80766 8.88158L9.81807 13.2375H12.9798L13.2462 12.3655H15.1985L15.4754 13.2375H17.6921L17.4819 12.567C18.3082 13.0784 19.2761 13.369 20.3126 13.369C22.2567 13.369 23.9613 12.3443 24.9354 10.7911V13.2439H27.2437V2.76886H24.9354V6.10423H19.8256H19.8276ZM54.1649 6.21032L51.305 1.9138V4.22225C50.2997 2.97891 48.7719 2.18751 47.0693 2.18751C45.3667 2.18751 43.8993 2.94921 42.894 4.15011H42.8378V2.75189H36.173V4.75056H37.1888L37.1971 9.72603C37.168 9.7133 34.8055 2.06233 34.8055 2.06233L32.9239 8.12837V2.75401H30.5844V6.09999L27.8973 2.09415V13.2439H30.1931L30.2014 10.1249L32.2558 13.2439H33.5942L33.9314 12.1681H35.7609L36.1023 13.2439H39.52V4.75056H40.5461V13.2396H42.869V11.3704C43.8743 12.5925 45.3833 13.369 47.0714 13.369C48.7594 13.369 50.335 12.5585 51.3362 11.2919V13.2354H53.6341V9.57963L56.367 13.7022V2.75401H54.1753L54.169 6.21244L54.1649 6.21032Z" fill="white"/>
</g>
<defs>
<clipPath id="clip0_11_670">
<rect width="59" height="16" fill="white"/>
</clipPath>
</defs>
</svg>
